<svg width="459" height="365" viewBox="0 0 459 365" fill="none" xmlns="http://www.w3.org/2000/svg">
<rect x="75" y="228" width="250" height="137" rx="6" fill="#015F43"/>
<path d="M112.523 258.625V270H111.039V258.625H112.523ZM116.18 258.625V259.859H107.391V258.625H116.18ZM116.484 265.867V265.688C116.484 265.078 116.573 264.513 116.75 263.992C116.927 263.466 117.182 263.01 117.516 262.625C117.849 262.234 118.253 261.932 118.727 261.719C119.201 261.5 119.732 261.391 120.32 261.391C120.914 261.391 121.448 261.5 121.922 261.719C122.401 261.932 122.807 262.234 123.141 262.625C123.479 263.01 123.737 263.466 123.914 263.992C124.091 264.513 124.18 265.078 124.18 265.688V265.867C124.18 266.477 124.091 267.042 123.914 267.562C123.737 268.083 123.479 268.539 123.141 268.93C122.807 269.315 122.404 269.617 121.93 269.836C121.461 270.049 120.93 270.156 120.336 270.156C119.742 270.156 119.208 270.049 118.734 269.836C118.26 269.617 117.854 269.315 117.516 268.93C117.182 268.539 116.927 268.083 116.75 267.562C116.573 267.042 116.484 266.477 116.484 265.867ZM117.93 265.688V265.867C117.93 266.289 117.979 266.688 118.078 267.062C118.177 267.432 118.326 267.76 118.523 268.047C118.727 268.333 118.979 268.56 119.281 268.727C119.583 268.888 119.935 268.969 120.336 268.969C120.732 268.969 121.078 268.888 121.375 268.727C121.677 268.56 121.927 268.333 122.125 268.047C122.323 267.76 122.471 267.432 122.57 267.062C122.674 266.688 122.727 266.289 122.727 265.867V265.688C122.727 265.271 122.674 264.878 122.57 264.508C122.471 264.133 122.32 263.802 122.117 263.516C121.919 263.224 121.669 262.995 121.367 262.828C121.07 262.661 120.721 262.578 120.32 262.578C119.924 262.578 119.576 262.661 119.273 262.828C118.977 262.995 118.727 263.224 118.523 263.516C118.326 263.802 118.177 264.133 118.078 264.508C117.979 264.878 117.93 265.271 117.93 265.688ZM129.531 261.547V262.656H124.961V261.547H129.531ZM126.508 259.492H127.953V267.906C127.953 268.193 127.997 268.409 128.086 268.555C128.174 268.701 128.289 268.797 128.43 268.844C128.57 268.891 128.721 268.914 128.883 268.914C129.003 268.914 129.128 268.904 129.258 268.883C129.393 268.857 129.495 268.836 129.562 268.82L129.57 270C129.456 270.036 129.305 270.07 129.117 270.102C128.935 270.138 128.714 270.156 128.453 270.156C128.099 270.156 127.773 270.086 127.477 269.945C127.18 269.805 126.943 269.57 126.766 269.242C126.594 268.909 126.508 268.461 126.508 267.898V259.492ZM136.211 268.555V264.203C136.211 263.87 136.143 263.581 136.008 263.336C135.878 263.086 135.68 262.893 135.414 262.758C135.148 262.622 134.82 262.555 134.43 262.555C134.065 262.555 133.745 262.617 133.469 262.742C133.198 262.867 132.984 263.031 132.828 263.234C132.677 263.438 132.602 263.656 132.602 263.891H131.156C131.156 263.589 131.234 263.289 131.391 262.992C131.547 262.695 131.771 262.427 132.062 262.188C132.359 261.943 132.714 261.75 133.125 261.609C133.542 261.464 134.005 261.391 134.516 261.391C135.13 261.391 135.672 261.495 136.141 261.703C136.615 261.911 136.984 262.227 137.25 262.648C137.521 263.065 137.656 263.589 137.656 264.219V268.156C137.656 268.438 137.68 268.737 137.727 269.055C137.779 269.372 137.854 269.646 137.953 269.875V270H136.445C136.372 269.833 136.315 269.612 136.273 269.336C136.232 269.055 136.211 268.794 136.211 268.555ZM136.461 264.875L136.477 265.891H135.016C134.604 265.891 134.237 265.924 133.914 265.992C133.591 266.055 133.32 266.151 133.102 266.281C132.883 266.411 132.716 266.576 132.602 266.773C132.487 266.966 132.43 267.193 132.43 267.453C132.43 267.719 132.49 267.961 132.609 268.18C132.729 268.398 132.909 268.573 133.148 268.703C133.393 268.828 133.693 268.891 134.047 268.891C134.49 268.891 134.88 268.797 135.219 268.609C135.557 268.422 135.826 268.193 136.023 267.922C136.227 267.651 136.336 267.388 136.352 267.133L136.969 267.828C136.932 268.047 136.833 268.289 136.672 268.555C136.51 268.82 136.294 269.076 136.023 269.32C135.758 269.56 135.44 269.76 135.07 269.922C134.706 270.078 134.294 270.156 133.836 270.156C133.263 270.156 132.76 270.044 132.328 269.82C131.901 269.596 131.568 269.297 131.328 268.922C131.094 268.542 130.977 268.117 130.977 267.648C130.977 267.195 131.065 266.797 131.242 266.453C131.419 266.104 131.674 265.815 132.008 265.586C132.341 265.352 132.742 265.174 133.211 265.055C133.68 264.935 134.203 264.875 134.781 264.875H136.461ZM141.5 258V270H140.047V258H141.5Z" fill="#C4C4CC"/>
<path fill-rule="evenodd" clip-rule="evenodd" d="M285 254C285.552 254 286 254.448 286 255L286 281C286 281.552 285.552 282 285 282C284.448 282 284 281.552 284 281L284 255C284 254.448 284.448 254 285 254Z" fill="white"/>
<path fill-rule="evenodd" clip-rule="evenodd" d="M278.257 258.757C279.383 257.632 280.909 257 282.5 257H287C287.788 257 288.568 257.155 289.296 257.457C290.024 257.758 290.685 258.2 291.243 258.757C291.8 259.315 292.242 259.976 292.543 260.704C292.845 261.432 293 262.212 293 263C293 263.552 292.552 264 292 264C291.448 264 291 263.552 291 263C291 262.475 290.897 261.955 290.696 261.469C290.495 260.984 290.2 260.543 289.828 260.172C289.457 259.8 289.016 259.506 288.531 259.304C288.045 259.103 287.525 259 287 259H282.5C281.439 259 280.422 259.421 279.672 260.172C278.921 260.922 278.5 261.939 278.5 263C278.5 264.061 278.921 265.078 279.672 265.828C280.422 266.579 281.439 267 282.5 267H288C289.591 267 291.117 267.632 292.243 268.757C293.368 269.883 294 271.409 294 273C294 274.591 293.368 276.117 292.243 277.243C291.117 278.368 289.591 279 288 279H282C280.409 279 278.883 278.368 277.757 277.243C276.632 276.117 276 274.591 276 273C276 272.448 276.448 272 277 272C277.552 272 278 272.448 278 273C278 274.061 278.421 275.078 279.172 275.828C279.922 276.579 280.939 277 282 277H288C289.061 277 290.078 276.579 290.828 275.828C291.579 275.078 292 274.061 292 273C292 271.939 291.579 270.922 290.828 270.172C290.078 269.421 289.061 269 288 269H282.5C280.909 269 279.383 268.368 278.257 267.243C277.132 266.117 276.5 264.591 276.5 263C276.5 261.409 277.132 259.883 278.257 258.757Z" fill="white"/>
<path d="M109.031 306.25H117.516C119.255 306.25 120.75 306.51 122 307.031C123.26 307.552 124.229 308.323 124.906 309.344C125.583 310.365 125.922 311.62 125.922 313.109C125.922 314.328 125.714 315.375 125.297 316.25C124.891 317.115 124.312 317.839 123.562 318.422C122.823 318.995 121.953 319.453 120.953 319.797L119.469 320.578H112.094L112.062 316.922H117.547C118.37 316.922 119.052 316.776 119.594 316.484C120.135 316.193 120.542 315.786 120.812 315.266C121.094 314.745 121.234 314.141 121.234 313.453C121.234 312.724 121.099 312.094 120.828 311.562C120.557 311.031 120.146 310.625 119.594 310.344C119.042 310.062 118.349 309.922 117.516 309.922H113.719V329H109.031V306.25ZM121.75 329L116.562 318.859L121.516 318.828L126.766 328.781V329H121.75ZM138.453 302.641V307.25H136.016V302.641H138.453ZM138.156 328.156V332.359H135.719V328.156H138.156ZM139.875 323.031C139.875 322.438 139.766 321.932 139.547 321.516C139.339 321.099 138.995 320.729 138.516 320.406C138.047 320.083 137.411 319.771 136.609 319.469C135.255 318.948 134.062 318.396 133.031 317.812C132.01 317.219 131.214 316.484 130.641 315.609C130.068 314.724 129.781 313.604 129.781 312.25C129.781 310.958 130.089 309.839 130.703 308.891C131.318 307.943 132.167 307.214 133.25 306.703C134.344 306.182 135.615 305.922 137.062 305.922C138.167 305.922 139.167 306.089 140.062 306.422C140.958 306.745 141.729 307.224 142.375 307.859C143.021 308.484 143.516 309.25 143.859 310.156C144.203 311.062 144.375 312.099 144.375 313.266H139.891C139.891 312.641 139.823 312.089 139.688 311.609C139.552 311.13 139.354 310.729 139.094 310.406C138.844 310.083 138.542 309.844 138.188 309.688C137.833 309.521 137.443 309.438 137.016 309.438C136.38 309.438 135.859 309.562 135.453 309.812C135.047 310.062 134.75 310.401 134.562 310.828C134.385 311.245 134.297 311.724 134.297 312.266C134.297 312.797 134.391 313.26 134.578 313.656C134.776 314.052 135.115 314.417 135.594 314.75C136.073 315.073 136.729 315.406 137.562 315.75C138.917 316.271 140.104 316.833 141.125 317.438C142.146 318.042 142.943 318.781 143.516 319.656C144.089 320.531 144.375 321.646 144.375 323C144.375 324.344 144.062 325.49 143.438 326.438C142.812 327.375 141.938 328.094 140.812 328.594C139.688 329.083 138.385 329.328 136.906 329.328C135.948 329.328 134.995 329.203 134.047 328.953C133.099 328.693 132.24 328.276 131.469 327.703C130.698 327.13 130.083 326.37 129.625 325.422C129.167 324.464 128.938 323.286 128.938 321.891H133.438C133.438 322.651 133.536 323.286 133.734 323.797C133.932 324.297 134.193 324.698 134.516 325C134.849 325.292 135.224 325.5 135.641 325.625C136.057 325.75 136.479 325.812 136.906 325.812C137.573 325.812 138.12 325.693 138.547 325.453C138.984 325.214 139.312 324.885 139.531 324.469C139.76 324.042 139.875 323.562 139.875 323.031ZM166.375 306.203V329H161.875V311.391L156.469 313.109V309.562L165.891 306.203H166.375ZM185.391 306.016H186.047V309.609H185.781C184.594 309.609 183.536 309.786 182.609 310.141C181.682 310.495 180.896 311 180.25 311.656C179.615 312.302 179.125 313.083 178.781 314C178.448 314.917 178.281 315.943 178.281 317.078V320.859C178.281 321.672 178.359 322.391 178.516 323.016C178.682 323.63 178.917 324.146 179.219 324.562C179.531 324.969 179.896 325.276 180.312 325.484C180.729 325.682 181.198 325.781 181.719 325.781C182.208 325.781 182.651 325.677 183.047 325.469C183.453 325.26 183.797 324.969 184.078 324.594C184.37 324.208 184.589 323.76 184.734 323.25C184.891 322.729 184.969 322.161 184.969 321.547C184.969 320.932 184.891 320.365 184.734 319.844C184.589 319.323 184.37 318.875 184.078 318.5C183.786 318.115 183.432 317.818 183.016 317.609C182.599 317.401 182.13 317.297 181.609 317.297C180.901 317.297 180.276 317.464 179.734 317.797C179.203 318.12 178.786 318.536 178.484 319.047C178.182 319.557 178.021 320.094 178 320.656L176.641 319.781C176.672 318.979 176.839 318.219 177.141 317.5C177.453 316.781 177.88 316.146 178.422 315.594C178.974 315.031 179.635 314.594 180.406 314.281C181.177 313.958 182.047 313.797 183.016 313.797C184.078 313.797 185.01 314 185.812 314.406C186.625 314.812 187.302 315.37 187.844 316.078C188.385 316.786 188.792 317.604 189.062 318.531C189.333 319.458 189.469 320.448 189.469 321.5C189.469 322.604 189.286 323.63 188.922 324.578C188.568 325.526 188.052 326.354 187.375 327.062C186.708 327.771 185.906 328.323 184.969 328.719C184.031 329.115 182.979 329.312 181.812 329.312C180.604 329.312 179.505 329.094 178.516 328.656C177.536 328.208 176.693 327.583 175.984 326.781C175.276 325.979 174.729 325.026 174.344 323.922C173.969 322.818 173.781 321.609 173.781 320.297V318.547C173.781 316.714 174.047 315.036 174.578 313.516C175.12 311.984 175.896 310.661 176.906 309.547C177.917 308.422 179.135 307.552 180.562 306.938C181.99 306.323 183.599 306.016 185.391 306.016ZM192.562 326.828C192.562 326.161 192.792 325.604 193.25 325.156C193.719 324.708 194.339 324.484 195.109 324.484C195.88 324.484 196.495 324.708 196.953 325.156C197.422 325.604 197.656 326.161 197.656 326.828C197.656 327.495 197.422 328.052 196.953 328.5C196.495 328.948 195.88 329.172 195.109 329.172C194.339 329.172 193.719 328.948 193.25 328.5C192.792 328.052 192.562 327.495 192.562 326.828ZM212.406 306.203V329H207.906V311.391L202.5 313.109V309.562L211.922 306.203H212.406ZM235.75 320.5V324.031H219.359L219.141 321.297L228.625 306.25H232.203L228.328 312.734L223.609 320.5H235.75ZM233.172 306.25V329H228.672V306.25H233.172ZM249.156 306.203V329H244.656V311.391L239.25 313.109V309.562L248.672 306.203H249.156ZM261.016 325.203L261 328.219C261 329.375 260.708 330.542 260.125 331.719C259.552 332.896 258.823 333.859 257.938 334.609L255.594 333.406C255.854 332.927 256.109 332.448 256.359 331.969C256.609 331.49 256.818 330.964 256.984 330.391C257.151 329.818 257.234 329.167 257.234 328.438V325.203H261.016ZM279.75 315.625V319.562C279.75 321.271 279.568 322.745 279.203 323.984C278.839 325.214 278.312 326.224 277.625 327.016C276.948 327.797 276.141 328.375 275.203 328.75C274.266 329.125 273.224 329.312 272.078 329.312C271.161 329.312 270.307 329.198 269.516 328.969C268.724 328.729 268.01 328.359 267.375 327.859C266.75 327.359 266.208 326.729 265.75 325.969C265.302 325.198 264.958 324.281 264.719 323.219C264.479 322.156 264.359 320.938 264.359 319.562V315.625C264.359 313.917 264.542 312.453 264.906 311.234C265.281 310.005 265.807 309 266.484 308.219C267.172 307.438 267.984 306.865 268.922 306.5C269.859 306.125 270.901 305.938 272.047 305.938C272.964 305.938 273.812 306.057 274.594 306.297C275.385 306.526 276.099 306.885 276.734 307.375C277.37 307.865 277.911 308.495 278.359 309.266C278.807 310.026 279.151 310.938 279.391 312C279.63 313.052 279.75 314.26 279.75 315.625ZM275.234 320.156V315.016C275.234 314.193 275.188 313.474 275.094 312.859C275.01 312.245 274.88 311.724 274.703 311.297C274.526 310.859 274.307 310.505 274.047 310.234C273.786 309.964 273.49 309.766 273.156 309.641C272.823 309.516 272.453 309.453 272.047 309.453C271.536 309.453 271.083 309.552 270.688 309.75C270.302 309.948 269.974 310.266 269.703 310.703C269.432 311.13 269.224 311.703 269.078 312.422C268.943 313.13 268.875 313.995 268.875 315.016V320.156C268.875 320.979 268.917 321.703 269 322.328C269.094 322.953 269.229 323.49 269.406 323.938C269.594 324.375 269.812 324.734 270.062 325.016C270.323 325.286 270.62 325.484 270.953 325.609C271.297 325.734 271.672 325.797 272.078 325.797C272.578 325.797 273.021 325.698 273.406 325.5C273.802 325.292 274.135 324.969 274.406 324.531C274.688 324.083 274.896 323.5 275.031 322.781C275.167 322.062 275.234 321.188 275.234 320.156ZM298.125 315.625V319.562C298.125 321.271 297.943 322.745 297.578 323.984C297.214 325.214 296.688 326.224 296 327.016C295.323 327.797 294.516 328.375 293.578 328.75C292.641 329.125 291.599 329.312 290.453 329.312C289.536 329.312 288.682 329.198 287.891 328.969C287.099 328.729 286.385 328.359 285.75 327.859C285.125 327.359 284.583 326.729 284.125 325.969C283.677 325.198 283.333 324.281 283.094 323.219C282.854 322.156 282.734 320.938 282.734 319.562V315.625C282.734 313.917 282.917 312.453 283.281 311.234C283.656 310.005 284.182 309 284.859 308.219C285.547 307.438 286.359 306.865 287.297 306.5C288.234 306.125 289.276 305.938 290.422 305.938C291.339 305.938 292.188 306.057 292.969 306.297C293.76 306.526 294.474 306.885 295.109 307.375C295.745 307.865 296.286 308.495 296.734 309.266C297.182 310.026 297.526 310.938 297.766 312C298.005 313.052 298.125 314.26 298.125 315.625ZM293.609 320.156V315.016C293.609 314.193 293.562 313.474 293.469 312.859C293.385 312.245 293.255 311.724 293.078 311.297C292.901 310.859 292.682 310.505 292.422 310.234C292.161 309.964 291.865 309.766 291.531 309.641C291.198 309.516 290.828 309.453 290.422 309.453C289.911 309.453 289.458 309.552 289.062 309.75C288.677 309.948 288.349 310.266 288.078 310.703C287.807 311.13 287.599 311.703 287.453 312.422C287.318 313.13 287.25 313.995 287.25 315.016V320.156C287.25 320.979 287.292 321.703 287.375 322.328C287.469 322.953 287.604 323.49 287.781 323.938C287.969 324.375 288.188 324.734 288.438 325.016C288.698 325.286 288.995 325.484 289.328 325.609C289.672 325.734 290.047 325.797 290.453 325.797C290.953 325.797 291.396 325.698 291.781 325.5C292.177 325.292 292.51 324.969 292.781 324.531C293.062 324.083 293.271 323.5 293.406 322.781C293.542 322.062 293.609 321.188 293.609 320.156Z" fill="#E1E1E6"/>
<rect width="250" height="137" rx="6" fill="#323238"/>
<path d="M39.3828 39.125C39.3828 38.8594 39.3411 38.625 39.2578 38.4219C39.1797 38.2135 39.0391 38.026 38.8359 37.8594C38.638 37.6927 38.362 37.5339 38.0078 37.3828C37.6589 37.2318 37.2161 37.0781 36.6797 36.9219C36.1172 36.7552 35.6094 36.5703 35.1562 36.3672C34.7031 36.1589 34.3151 35.9219 33.9922 35.6562C33.6693 35.3906 33.4219 35.0859 33.25 34.7422C33.0781 34.3984 32.9922 34.0052 32.9922 33.5625C32.9922 33.1198 33.0833 32.7109 33.2656 32.3359C33.4479 31.9609 33.7083 31.6354 34.0469 31.3594C34.3906 31.0781 34.7995 30.8594 35.2734 30.7031C35.7474 30.5469 36.276 30.4688 36.8594 30.4688C37.7135 30.4688 38.4375 30.6328 39.0312 30.9609C39.6302 31.2839 40.0859 31.7083 40.3984 32.2344C40.7109 32.7552 40.8672 33.3125 40.8672 33.9062H39.3672C39.3672 33.4792 39.276 33.1016 39.0938 32.7734C38.9115 32.4401 38.6354 32.1797 38.2656 31.9922C37.8958 31.7995 37.4271 31.7031 36.8594 31.7031C36.3229 31.7031 35.8802 31.7839 35.5312 31.9453C35.1823 32.1068 34.9219 32.3255 34.75 32.6016C34.5833 32.8776 34.5 33.1927 34.5 33.5469C34.5 33.7865 34.5495 34.0052 34.6484 34.2031C34.7526 34.3958 34.9115 34.5755 35.125 34.7422C35.3438 34.9089 35.6198 35.0625 35.9531 35.2031C36.2917 35.3438 36.6953 35.4792 37.1641 35.6094C37.8099 35.7917 38.3672 35.9948 38.8359 36.2188C39.3047 36.4427 39.6901 36.6953 39.9922 36.9766C40.2995 37.2526 40.526 37.5677 40.6719 37.9219C40.8229 38.2708 40.8984 38.6667 40.8984 39.1094C40.8984 39.5729 40.8047 39.9922 40.6172 40.3672C40.4297 40.7422 40.1615 41.0625 39.8125 41.3281C39.4635 41.5938 39.0443 41.7995 38.5547 41.9453C38.0703 42.0859 37.5286 42.1562 36.9297 42.1562C36.4036 42.1562 35.8854 42.0833 35.375 41.9375C34.8698 41.7917 34.4089 41.5729 33.9922 41.2812C33.5807 40.9896 33.25 40.6302 33 40.2031C32.7552 39.7708 32.6328 39.2708 32.6328 38.7031H34.1328C34.1328 39.0938 34.2083 39.4297 34.3594 39.7109C34.5104 39.987 34.7161 40.2161 34.9766 40.3984C35.2422 40.5807 35.5417 40.7161 35.875 40.8047C36.2135 40.888 36.5651 40.9297 36.9297 40.9297C37.4557 40.9297 37.901 40.8568 38.2656 40.7109C38.6302 40.5651 38.9062 40.3568 39.0938 40.0859C39.2865 39.8151 39.3828 39.4948 39.3828 39.125ZM47.5859 40.5547V36.2031C47.5859 35.8698 47.5182 35.5807 47.3828 35.3359C47.2526 35.0859 47.0547 34.8932 46.7891 34.7578C46.5234 34.6224 46.1953 34.5547 45.8047 34.5547C45.4401 34.5547 45.1198 34.6172 44.8438 34.7422C44.5729 34.8672 44.3594 35.0312 44.2031 35.2344C44.0521 35.4375 43.9766 35.6562 43.9766 35.8906H42.5312C42.5312 35.5885 42.6094 35.2891 42.7656 34.9922C42.9219 34.6953 43.1458 34.4271 43.4375 34.1875C43.7344 33.9427 44.0885 33.75 44.5 33.6094C44.9167 33.4635 45.3802 33.3906 45.8906 33.3906C46.5052 33.3906 47.0469 33.4948 47.5156 33.7031C47.9896 33.9115 48.3594 34.2266 48.625 34.6484C48.8958 35.0651 49.0312 35.5885 49.0312 36.2188V40.1562C49.0312 40.4375 49.0547 40.737 49.1016 41.0547C49.1536 41.3724 49.2292 41.6458 49.3281 41.875V42H47.8203C47.7474 41.8333 47.6901 41.612 47.6484 41.3359C47.6068 41.0547 47.5859 40.7943 47.5859 40.5547ZM47.8359 36.875L47.8516 37.8906H46.3906C45.9792 37.8906 45.612 37.9245 45.2891 37.9922C44.9661 38.0547 44.6953 38.151 44.4766 38.2812C44.2578 38.4115 44.0911 38.5755 43.9766 38.7734C43.862 38.9661 43.8047 39.1927 43.8047 39.4531C43.8047 39.7188 43.8646 39.9609 43.9844 40.1797C44.1042 40.3984 44.2839 40.5729 44.5234 40.7031C44.7682 40.8281 45.0677 40.8906 45.4219 40.8906C45.8646 40.8906 46.2552 40.7969 46.5938 40.6094C46.9323 40.4219 47.2005 40.1927 47.3984 39.9219C47.6016 39.651 47.7109 39.388 47.7266 39.1328L48.3438 39.8281C48.3073 40.0469 48.2083 40.2891 48.0469 40.5547C47.8854 40.8203 47.6693 41.0755 47.3984 41.3203C47.1328 41.5599 46.8151 41.7604 46.4453 41.9219C46.0807 42.0781 45.6693 42.1562 45.2109 42.1562C44.638 42.1562 44.1354 42.0443 43.7031 41.8203C43.276 41.5964 42.9427 41.2969 42.7031 40.9219C42.4688 40.5417 42.3516 40.1172 42.3516 39.6484C42.3516 39.1953 42.4401 38.7969 42.6172 38.4531C42.7943 38.1042 43.0495 37.8151 43.3828 37.5859C43.7161 37.3516 44.1172 37.1745 44.5859 37.0547C45.0547 36.9349 45.5781 36.875 46.1562 36.875H47.8359ZM52.8672 33.5469V42H51.4219V33.5469H52.8672ZM51.375 32.3125L52.8906 30.0156H54.6328L52.5391 32.3125H51.375ZM60.6016 40.3594V30H62.0547V42H60.7266L60.6016 40.3594ZM54.9141 37.8672V37.7031C54.9141 37.0573 54.9922 36.4714 55.1484 35.9453C55.3099 35.4141 55.5365 34.9583 55.8281 34.5781C56.125 34.1979 56.4766 33.9062 56.8828 33.7031C57.2943 33.4948 57.7526 33.3906 58.2578 33.3906C58.7891 33.3906 59.2526 33.4844 59.6484 33.6719C60.0495 33.8542 60.388 34.1224 60.6641 34.4766C60.9453 34.8255 61.1667 35.2474 61.3281 35.7422C61.4896 36.237 61.6016 36.7969 61.6641 37.4219V38.1406C61.6068 38.7604 61.4948 39.3177 61.3281 39.8125C61.1667 40.3073 60.9453 40.7292 60.6641 41.0781C60.388 41.4271 60.0495 41.6953 59.6484 41.8828C59.2474 42.0651 58.7786 42.1562 58.2422 42.1562C57.7474 42.1562 57.2943 42.0495 56.8828 41.8359C56.4766 41.6224 56.125 41.3229 55.8281 40.9375C55.5365 40.5521 55.3099 40.099 55.1484 39.5781C54.9922 39.0521 54.9141 38.4818 54.9141 37.8672ZM56.3672 37.7031V37.8672C56.3672 38.2891 56.4089 38.6849 56.4922 39.0547C56.5807 39.4245 56.7161 39.75 56.8984 40.0312C57.0807 40.3125 57.3125 40.5339 57.5938 40.6953C57.875 40.8516 58.2109 40.9297 58.6016 40.9297C59.0807 40.9297 59.474 40.8281 59.7812 40.625C60.0938 40.4219 60.3438 40.1536 60.5312 39.8203C60.7188 39.487 60.8646 39.125 60.9688 38.7344V36.8516C60.9062 36.5651 60.8151 36.2891 60.6953 36.0234C60.5807 35.7526 60.4297 35.513 60.2422 35.3047C60.0599 35.0911 59.8333 34.9219 59.5625 34.7969C59.2969 34.6719 58.9818 34.6094 58.6172 34.6094C58.2214 34.6094 57.8802 34.6927 57.5938 34.8594C57.3125 35.0208 57.0807 35.2448 56.8984 35.5312C56.7161 35.8125 56.5807 36.1406 56.4922 36.5156C56.4089 36.8854 56.3672 37.2812 56.3672 37.7031ZM69.2891 40.5547V36.2031C69.2891 35.8698 69.2214 35.5807 69.0859 35.3359C68.9557 35.0859 68.7578 34.8932 68.4922 34.7578C68.2266 34.6224 67.8984 34.5547 67.5078 34.5547C67.1432 34.5547 66.8229 34.6172 66.5469 34.7422C66.276 34.8672 66.0625 35.0312 65.9062 35.2344C65.7552 35.4375 65.6797 35.6562 65.6797 35.8906H64.2344C64.2344 35.5885 64.3125 35.2891 64.4688 34.9922C64.625 34.6953 64.849 34.4271 65.1406 34.1875C65.4375 33.9427 65.7917 33.75 66.2031 33.6094C66.6198 33.4635 67.0833 33.3906 67.5938 33.3906C68.2083 33.3906 68.75 33.4948 69.2188 33.7031C69.6927 33.9115 70.0625 34.2266 70.3281 34.6484C70.599 35.0651 70.7344 35.5885 70.7344 36.2188V40.1562C70.7344 40.4375 70.7578 40.737 70.8047 41.0547C70.8568 41.3724 70.9323 41.6458 71.0312 41.875V42H69.5234C69.4505 41.8333 69.3932 41.612 69.3516 41.3359C69.3099 41.0547 69.2891 40.7943 69.2891 40.5547ZM69.5391 36.875L69.5547 37.8906H68.0938C67.6823 37.8906 67.3151 37.9245 66.9922 37.9922C66.6693 38.0547 66.3984 38.151 66.1797 38.2812C65.9609 38.4115 65.7943 38.5755 65.6797 38.7734C65.5651 38.9661 65.5078 39.1927 65.5078 39.4531C65.5078 39.7188 65.5677 39.9609 65.6875 40.1797C65.8073 40.3984 65.987 40.5729 66.2266 40.7031C66.4714 40.8281 66.7708 40.8906 67.125 40.8906C67.5677 40.8906 67.9583 40.7969 68.2969 40.6094C68.6354 40.4219 68.9036 40.1927 69.1016 39.9219C69.3047 39.651 69.4141 39.388 69.4297 39.1328L70.0469 39.8281C70.0104 40.0469 69.9115 40.2891 69.75 40.5547C69.5885 40.8203 69.3724 41.0755 69.1016 41.3203C68.8359 41.5599 68.5182 41.7604 68.1484 41.9219C67.7839 42.0781 67.3724 42.1562 66.9141 42.1562C66.3411 42.1562 65.8385 42.0443 65.4062 41.8203C64.9792 41.5964 64.6458 41.2969 64.4062 40.9219C64.1719 40.5417 64.0547 40.1172 64.0547 39.6484C64.0547 39.1953 64.1432 38.7969 64.3203 38.4531C64.4974 38.1042 64.7526 37.8151 65.0859 37.5859C65.4193 37.3516 65.8203 37.1745 66.2891 37.0547C66.7578 36.9349 67.2812 36.875 67.8594 36.875H69.5391ZM77.9297 39.7578C77.9297 39.5495 77.8828 39.3568 77.7891 39.1797C77.7005 38.9974 77.5156 38.8333 77.2344 38.6875C76.9583 38.5365 76.5417 38.4062 75.9844 38.2969C75.5156 38.1979 75.0911 38.0807 74.7109 37.9453C74.3359 37.8099 74.0156 37.6458 73.75 37.4531C73.4896 37.2604 73.2891 37.0339 73.1484 36.7734C73.0078 36.513 72.9375 36.2083 72.9375 35.8594C72.9375 35.526 73.0104 35.2109 73.1562 34.9141C73.3073 34.6172 73.5182 34.3542 73.7891 34.125C74.0651 33.8958 74.3958 33.7161 74.7812 33.5859C75.1667 33.4557 75.5964 33.3906 76.0703 33.3906C76.7474 33.3906 77.3255 33.5104 77.8047 33.75C78.2839 33.9896 78.651 34.3099 78.9062 34.7109C79.1615 35.1068 79.2891 35.5469 79.2891 36.0312H77.8438C77.8438 35.7969 77.7734 35.5703 77.6328 35.3516C77.4974 35.1276 77.2969 34.9427 77.0312 34.7969C76.7708 34.651 76.4505 34.5781 76.0703 34.5781C75.6693 34.5781 75.3438 34.6406 75.0938 34.7656C74.849 34.8854 74.6693 35.0391 74.5547 35.2266C74.4453 35.4141 74.3906 35.612 74.3906 35.8203C74.3906 35.9766 74.4167 36.1172 74.4688 36.2422C74.526 36.362 74.625 36.474 74.7656 36.5781C74.9062 36.6771 75.1042 36.7708 75.3594 36.8594C75.6146 36.9479 75.9401 37.0365 76.3359 37.125C77.0286 37.2812 77.599 37.4688 78.0469 37.6875C78.4948 37.9062 78.8281 38.1745 79.0469 38.4922C79.2656 38.8099 79.375 39.1953 79.375 39.6484C79.375 40.0182 79.2969 40.3568 79.1406 40.6641C78.9896 40.9714 78.7682 41.237 78.4766 41.4609C78.1901 41.6797 77.8464 41.8516 77.4453 41.9766C77.0495 42.0964 76.6042 42.1562 76.1094 42.1562C75.3646 42.1562 74.7344 42.0234 74.2188 41.7578C73.7031 41.4922 73.3125 41.1484 73.0469 40.7266C72.7812 40.3047 72.6484 39.8594 72.6484 39.3906H74.1016C74.1224 39.7865 74.237 40.1016 74.4453 40.3359C74.6536 40.5651 74.9089 40.7292 75.2109 40.8281C75.513 40.9219 75.8125 40.9688 76.1094 40.9688C76.5052 40.9688 76.8359 40.9167 77.1016 40.8125C77.3724 40.7083 77.5781 40.5651 77.7188 40.3828C77.8594 40.2005 77.9297 39.9922 77.9297 39.7578Z" fill="#C4C4CC"/>
<path fill-rule="evenodd" clip-rule="evenodd" d="M210 29C203.925 29 199 33.9249 199 40C199 46.0751 203.925 51 210 51C216.075 51 221 46.0751 221 40C221 33.9249 216.075 29 210 29ZM197 40C197 32.8203 202.82 27 210 27C217.18 27 223 32.8203 223 40C223 47.1797 217.18 53 210 53C202.82 53 197 47.1797 197 40Z" fill="#F75A68"/>
<path fill-rule="evenodd" clip-rule="evenodd" d="M205.055 40.0553C205.446 39.6648 206.079 39.6648 206.47 40.0553L210 43.5857L213.53 40.0553C213.921 39.6648 214.554 39.6648 214.945 40.0553C215.335 40.4459 215.335 41.079 214.945 41.4696L210.707 45.7071C210.317 46.0976 209.683 46.0976 209.293 45.7071L205.055 41.4696C204.665 41.079 204.665 40.4459 205.055 40.0553Z" fill="#F75A68"/>
<path fill-rule="evenodd" clip-rule="evenodd" d="M210 34C210.552 34 211 34.4477 211 35L211 45C211 45.5523 210.552 46 210 46C209.448 46 209 45.5523 209 45L209 35C209 34.4477 209.448 34 210 34Z" fill="#F75A68"/>
<path d="M34.0312 78.25H42.5156C44.2552 78.25 45.75 78.5104 47 79.0312C48.2604 79.5521 49.2292 80.3229 49.9062 81.3438C50.5833 82.3646 50.9219 83.6198 50.9219 85.1094C50.9219 86.3281 50.7135 87.375 50.2969 88.25C49.8906 89.1146 49.3125 89.8385 48.5625 90.4219C47.8229 90.9948 46.9531 91.4531 45.9531 91.7969L44.4688 92.5781H37.0938L37.0625 88.9219H42.5469C43.3698 88.9219 44.0521 88.776 44.5938 88.4844C45.1354 88.1927 45.5417 87.7865 45.8125 87.2656C46.0938 86.7448 46.2344 86.1406 46.2344 85.4531C46.2344 84.724 46.099 84.0938 45.8281 83.5625C45.5573 83.0312 45.1458 82.625 44.5938 82.3438C44.0417 82.0625 43.349 81.9219 42.5156 81.9219H38.7188V101H34.0312V78.25ZM46.75 101L41.5625 90.8594L46.5156 90.8281L51.7656 100.781V101H46.75ZM63.4531 74.6406V79.25H61.0156V74.6406H63.4531ZM63.1562 100.156V104.359H60.7188V100.156H63.1562ZM64.875 95.0312C64.875 94.4375 64.7656 93.9323 64.5469 93.5156C64.3385 93.099 63.9948 92.7292 63.5156 92.4062C63.0469 92.0833 62.4115 91.7708 61.6094 91.4688C60.2552 90.9479 59.0625 90.3958 58.0312 89.8125C57.0104 89.2188 56.2135 88.4844 55.6406 87.6094C55.0677 86.724 54.7812 85.6042 54.7812 84.25C54.7812 82.9583 55.0885 81.8385 55.7031 80.8906C56.3177 79.9427 57.1667 79.2135 58.25 78.7031C59.3438 78.1823 60.6146 77.9219 62.0625 77.9219C63.1667 77.9219 64.1667 78.0885 65.0625 78.4219C65.9583 78.7448 66.7292 79.224 67.375 79.8594C68.0208 80.4844 68.5156 81.25 68.8594 82.1562C69.2031 83.0625 69.375 84.099 69.375 85.2656H64.8906C64.8906 84.6406 64.8229 84.0885 64.6875 83.6094C64.5521 83.1302 64.3542 82.7292 64.0938 82.4062C63.8438 82.0833 63.5417 81.8438 63.1875 81.6875C62.8333 81.5208 62.4427 81.4375 62.0156 81.4375C61.3802 81.4375 60.8594 81.5625 60.4531 81.8125C60.0469 82.0625 59.75 82.401 59.5625 82.8281C59.3854 83.2448 59.2969 83.724 59.2969 84.2656C59.2969 84.7969 59.3906 85.2604 59.5781 85.6562C59.776 86.0521 60.1146 86.4167 60.5938 86.75C61.0729 87.0729 61.7292 87.4062 62.5625 87.75C63.9167 88.2708 65.1042 88.8333 66.125 89.4375C67.1458 90.0417 67.9427 90.7812 68.5156 91.6562C69.0885 92.5312 69.375 93.6458 69.375 95C69.375 96.3438 69.0625 97.4896 68.4375 98.4375C67.8125 99.375 66.9375 100.094 65.8125 100.594C64.6875 101.083 63.3854 101.328 61.9062 101.328C60.9479 101.328 59.9948 101.203 59.0469 100.953C58.099 100.693 57.2396 100.276 56.4688 99.7031C55.6979 99.1302 55.0833 98.3698 54.625 97.4219C54.1667 96.4635 53.9375 95.2865 53.9375 93.8906H58.4375C58.4375 94.651 58.5365 95.2865 58.7344 95.7969C58.9323 96.2969 59.1927 96.6979 59.5156 97C59.849 97.2917 60.224 97.5 60.6406 97.625C61.0573 97.75 61.4792 97.8125 61.9062 97.8125C62.5729 97.8125 63.1198 97.6927 63.5469 97.4531C63.9844 97.2135 64.3125 96.8854 64.5312 96.4688C64.7604 96.0417 64.875 95.5625 64.875 95.0312ZM91.375 78.2031V101H86.875V83.3906L81.4688 85.1094V81.5625L90.8906 78.2031H91.375ZM99.1875 98.8281C99.1875 98.1615 99.4167 97.6042 99.875 97.1562C100.344 96.7083 100.964 96.4844 101.734 96.4844C102.505 96.4844 103.12 96.7083 103.578 97.1562C104.047 97.6042 104.281 98.1615 104.281 98.8281C104.281 99.4948 104.047 100.052 103.578 100.5C103.12 100.948 102.505 101.172 101.734 101.172C100.964 101.172 100.344 100.948 99.875 100.5C99.4167 100.052 99.1875 99.4948 99.1875 98.8281ZM123.625 97.4844V101H108.062V98L115.422 90.1094C116.161 89.2865 116.745 88.5625 117.172 87.9375C117.599 87.3021 117.906 86.7344 118.094 86.2344C118.292 85.724 118.391 85.2396 118.391 84.7812C118.391 84.0938 118.276 83.5052 118.047 83.0156C117.818 82.5156 117.479 82.1302 117.031 81.8594C116.594 81.5885 116.052 81.4531 115.406 81.4531C114.719 81.4531 114.125 81.6198 113.625 81.9531C113.135 82.2865 112.76 82.75 112.5 83.3438C112.25 83.9375 112.125 84.6094 112.125 85.3594H107.609C107.609 84.0052 107.932 82.7656 108.578 81.6406C109.224 80.5052 110.135 79.6042 111.312 78.9375C112.49 78.2604 113.885 77.9219 115.5 77.9219C117.094 77.9219 118.438 78.1823 119.531 78.7031C120.635 79.2135 121.469 79.9531 122.031 80.9219C122.604 81.8802 122.891 83.026 122.891 84.3594C122.891 85.1094 122.771 85.8438 122.531 86.5625C122.292 87.2708 121.948 87.9792 121.5 88.6875C121.062 89.3854 120.531 90.0938 119.906 90.8125C119.281 91.5312 118.589 92.276 117.828 93.0469L113.875 97.4844H123.625ZM130.672 90.6406L127.078 89.7812L128.375 78.25H141.156V81.8906H132.078L131.516 86.9375C131.818 86.7604 132.276 86.5729 132.891 86.375C133.505 86.1667 134.193 86.0625 134.953 86.0625C136.057 86.0625 137.036 86.2344 137.891 86.5781C138.745 86.9219 139.469 87.4219 140.062 88.0781C140.667 88.7344 141.125 89.5365 141.438 90.4844C141.75 91.4323 141.906 92.5052 141.906 93.7031C141.906 94.7135 141.75 95.6771 141.438 96.5938C141.125 97.5 140.651 98.3125 140.016 99.0312C139.38 99.7396 138.583 100.297 137.625 100.703C136.667 101.109 135.531 101.312 134.219 101.312C133.24 101.312 132.292 101.167 131.375 100.875C130.469 100.583 129.651 100.151 128.922 99.5781C128.203 99.0052 127.625 98.3125 127.188 97.5C126.76 96.6771 126.536 95.7396 126.516 94.6875H130.984C131.047 95.3333 131.214 95.8906 131.484 96.3594C131.766 96.8177 132.135 97.1719 132.594 97.4219C133.052 97.6719 133.589 97.7969 134.203 97.7969C134.776 97.7969 135.266 97.6875 135.672 97.4688C136.078 97.25 136.406 96.9479 136.656 96.5625C136.906 96.1667 137.089 95.7083 137.203 95.1875C137.328 94.6562 137.391 94.0833 137.391 93.4688C137.391 92.8542 137.318 92.2969 137.172 91.7969C137.026 91.2969 136.802 90.8646 136.5 90.5C136.198 90.1354 135.812 89.8542 135.344 89.6562C134.885 89.4583 134.349 89.3594 133.734 89.3594C132.901 89.3594 132.255 89.4896 131.797 89.75C131.349 90.0104 130.974 90.3073 130.672 90.6406ZM148 97.5781H148.297C149.547 97.5781 150.62 97.4271 151.516 97.125C152.422 96.8125 153.167 96.3646 153.75 95.7812C154.333 95.1979 154.766 94.4844 155.047 93.6406C155.328 92.7865 155.469 91.8177 155.469 90.7344V86.4219C155.469 85.599 155.385 84.875 155.219 84.25C155.062 83.625 154.833 83.1094 154.531 82.7031C154.24 82.2865 153.896 81.974 153.5 81.7656C153.115 81.5573 152.688 81.4531 152.219 81.4531C151.719 81.4531 151.276 81.5781 150.891 81.8281C150.505 82.0677 150.177 82.3958 149.906 82.8125C149.646 83.2292 149.443 83.7083 149.297 84.25C149.161 84.7812 149.094 85.3385 149.094 85.9219C149.094 86.5052 149.161 87.0625 149.297 87.5938C149.432 88.1146 149.635 88.5781 149.906 88.9844C150.177 89.3802 150.516 89.6979 150.922 89.9375C151.328 90.1667 151.807 90.2812 152.359 90.2812C152.891 90.2812 153.365 90.1823 153.781 89.9844C154.208 89.776 154.568 89.5052 154.859 89.1719C155.161 88.8385 155.391 88.4688 155.547 88.0625C155.714 87.6562 155.797 87.2448 155.797 86.8281L157.281 87.6406C157.281 88.3698 157.125 89.0885 156.812 89.7969C156.5 90.5052 156.062 91.151 155.5 91.7344C154.948 92.3073 154.307 92.7656 153.578 93.1094C152.849 93.4531 152.068 93.625 151.234 93.625C150.172 93.625 149.229 93.4323 148.406 93.0469C147.583 92.651 146.885 92.1094 146.312 91.4219C145.75 90.724 145.323 89.9115 145.031 88.9844C144.74 88.0573 144.594 87.0521 144.594 85.9688C144.594 84.8646 144.771 83.8281 145.125 82.8594C145.49 81.8906 146.005 81.0365 146.672 80.2969C147.349 79.5573 148.156 78.9792 149.094 78.5625C150.042 78.1354 151.094 77.9219 152.25 77.9219C153.406 77.9219 154.458 78.1458 155.406 78.5938C156.354 79.0417 157.167 79.6771 157.844 80.5C158.521 81.3125 159.042 82.2865 159.406 83.4219C159.781 84.5573 159.969 85.8177 159.969 87.2031V88.7656C159.969 90.2448 159.807 91.6198 159.484 92.8906C159.172 94.1615 158.698 95.3125 158.062 96.3438C157.438 97.3646 156.656 98.2396 155.719 98.9688C154.792 99.6979 153.714 100.255 152.484 100.641C151.255 101.026 149.88 101.219 148.359 101.219H148V97.5781ZM167.641 97.2031L167.625 100.219C167.625 101.375 167.333 102.542 166.75 103.719C166.177 104.896 165.448 105.859 164.562 106.609L162.219 105.406C162.479 104.927 162.734 104.448 162.984 103.969C163.234 103.49 163.443 102.964 163.609 102.391C163.776 101.818 163.859 101.167 163.859 100.438V97.2031H167.641ZM186.375 87.625V91.5625C186.375 93.2708 186.193 94.7448 185.828 95.9844C185.464 97.2135 184.938 98.224 184.25 99.0156C183.573 99.7969 182.766 100.375 181.828 100.75C180.891 101.125 179.849 101.312 178.703 101.312C177.786 101.312 176.932 101.198 176.141 100.969C175.349 100.729 174.635 100.359 174 99.8594C173.375 99.3594 172.833 98.7292 172.375 97.9688C171.927 97.1979 171.583 96.2812 171.344 95.2188C171.104 94.1562 170.984 92.9375 170.984 91.5625V87.625C170.984 85.9167 171.167 84.4531 171.531 83.2344C171.906 82.0052 172.432 81 173.109 80.2188C173.797 79.4375 174.609 78.8646 175.547 78.5C176.484 78.125 177.526 77.9375 178.672 77.9375C179.589 77.9375 180.438 78.0573 181.219 78.2969C182.01 78.526 182.724 78.8854 183.359 79.375C183.995 79.8646 184.536 80.4948 184.984 81.2656C185.432 82.026 185.776 82.9375 186.016 84C186.255 85.0521 186.375 86.2604 186.375 87.625ZM181.859 92.1562V87.0156C181.859 86.1927 181.812 85.474 181.719 84.8594C181.635 84.2448 181.505 83.724 181.328 83.2969C181.151 82.8594 180.932 82.5052 180.672 82.2344C180.411 81.9635 180.115 81.7656 179.781 81.6406C179.448 81.5156 179.078 81.4531 178.672 81.4531C178.161 81.4531 177.708 81.5521 177.312 81.75C176.927 81.9479 176.599 82.2656 176.328 82.7031C176.057 83.1302 175.849 83.7031 175.703 84.4219C175.568 85.1302 175.5 85.9948 175.5 87.0156V92.1562C175.5 92.9792 175.542 93.7031 175.625 94.3281C175.719 94.9531 175.854 95.4896 176.031 95.9375C176.219 96.375 176.438 96.7344 176.688 97.0156C176.948 97.2865 177.245 97.4844 177.578 97.6094C177.922 97.7344 178.297 97.7969 178.703 97.7969C179.203 97.7969 179.646 97.6979 180.031 97.5C180.427 97.2917 180.76 96.9688 181.031 96.5312C181.312 96.0833 181.521 95.5 181.656 94.7812C181.792 94.0625 181.859 93.1875 181.859 92.1562ZM204.75 87.625V91.5625C204.75 93.2708 204.568 94.7448 204.203 95.9844C203.839 97.2135 203.312 98.224 202.625 99.0156C201.948 99.7969 201.141 100.375 200.203 100.75C199.266 101.125 198.224 101.312 197.078 101.312C196.161 101.312 195.307 101.198 194.516 100.969C193.724 100.729 193.01 100.359 192.375 99.8594C191.75 99.3594 191.208 98.7292 190.75 97.9688C190.302 97.1979 189.958 96.2812 189.719 95.2188C189.479 94.1562 189.359 92.9375 189.359 91.5625V87.625C189.359 85.9167 189.542 84.4531 189.906 83.2344C190.281 82.0052 190.807 81 191.484 80.2188C192.172 79.4375 192.984 78.8646 193.922 78.5C194.859 78.125 195.901 77.9375 197.047 77.9375C197.964 77.9375 198.812 78.0573 199.594 78.2969C200.385 78.526 201.099 78.8854 201.734 79.375C202.37 79.8646 202.911 80.4948 203.359 81.2656C203.807 82.026 204.151 82.9375 204.391 84C204.63 85.0521 204.75 86.2604 204.75 87.625ZM200.234 92.1562V87.0156C200.234 86.1927 200.188 85.474 200.094 84.8594C200.01 84.2448 199.88 83.724 199.703 83.2969C199.526 82.8594 199.307 82.5052 199.047 82.2344C198.786 81.9635 198.49 81.7656 198.156 81.6406C197.823 81.5156 197.453 81.4531 197.047 81.4531C196.536 81.4531 196.083 81.5521 195.688 81.75C195.302 81.9479 194.974 82.2656 194.703 82.7031C194.432 83.1302 194.224 83.7031 194.078 84.4219C193.943 85.1302 193.875 85.9948 193.875 87.0156V92.1562C193.875 92.9792 193.917 93.7031 194 94.3281C194.094 94.9531 194.229 95.4896 194.406 95.9375C194.594 96.375 194.812 96.7344 195.062 97.0156C195.323 97.2865 195.62 97.4844 195.953 97.6094C196.297 97.7344 196.672 97.7969 197.078 97.7969C197.578 97.7969 198.021 97.6979 198.406 97.5C198.802 97.2917 199.135 96.9688 199.406 96.5312C199.688 96.0833 199.896 95.5 200.031 94.7812C200.167 94.0625 200.234 93.1875 200.234 92.1562Z" fill="#E1E1E6"/>
<rect x="209" y="100" width="250" height="137" rx="6" fill="#323238"/>
<path d="M249.547 140.773V142H243.523V140.773H249.547ZM243.828 130.625V142H242.32V130.625H243.828ZM248.75 135.516V136.742H243.523V135.516H248.75ZM249.469 130.625V131.859H243.523V130.625H249.469ZM252.641 135.352V142H251.195V133.547H252.562L252.641 135.352ZM252.297 137.453L251.695 137.43C251.701 136.852 251.786 136.318 251.953 135.828C252.12 135.333 252.354 134.904 252.656 134.539C252.958 134.174 253.318 133.893 253.734 133.695C254.156 133.492 254.622 133.391 255.133 133.391C255.549 133.391 255.924 133.448 256.258 133.562C256.591 133.672 256.875 133.849 257.109 134.094C257.349 134.339 257.531 134.656 257.656 135.047C257.781 135.432 257.844 135.904 257.844 136.461V142H256.391V136.445C256.391 136.003 256.326 135.648 256.195 135.383C256.065 135.112 255.875 134.917 255.625 134.797C255.375 134.672 255.068 134.609 254.703 134.609C254.344 134.609 254.016 134.685 253.719 134.836C253.427 134.987 253.174 135.195 252.961 135.461C252.753 135.727 252.589 136.031 252.469 136.375C252.354 136.714 252.297 137.073 252.297 137.453ZM263.578 133.547V134.656H259.008V133.547H263.578ZM260.555 131.492H262V139.906C262 140.193 262.044 140.409 262.133 140.555C262.221 140.701 262.336 140.797 262.477 140.844C262.617 140.891 262.768 140.914 262.93 140.914C263.049 140.914 263.174 140.904 263.305 140.883C263.44 140.857 263.542 140.836 263.609 140.82L263.617 142C263.503 142.036 263.352 142.07 263.164 142.102C262.982 142.138 262.76 142.156 262.5 142.156C262.146 142.156 261.82 142.086 261.523 141.945C261.227 141.805 260.99 141.57 260.812 141.242C260.641 140.909 260.555 140.461 260.555 139.898V131.492ZM266.719 134.875V142H265.273V133.547H266.68L266.719 134.875ZM269.359 133.5L269.352 134.844C269.232 134.818 269.117 134.802 269.008 134.797C268.904 134.786 268.784 134.781 268.648 134.781C268.315 134.781 268.021 134.833 267.766 134.938C267.51 135.042 267.294 135.188 267.117 135.375C266.94 135.562 266.799 135.786 266.695 136.047C266.596 136.302 266.531 136.583 266.5 136.891L266.094 137.125C266.094 136.615 266.143 136.135 266.242 135.688C266.346 135.24 266.505 134.844 266.719 134.5C266.932 134.151 267.203 133.88 267.531 133.688C267.865 133.49 268.26 133.391 268.719 133.391C268.823 133.391 268.943 133.404 269.078 133.43C269.214 133.451 269.307 133.474 269.359 133.5ZM275.367 140.555V136.203C275.367 135.87 275.299 135.581 275.164 135.336C275.034 135.086 274.836 134.893 274.57 134.758C274.305 134.622 273.977 134.555 273.586 134.555C273.221 134.555 272.901 134.617 272.625 134.742C272.354 134.867 272.141 135.031 271.984 135.234C271.833 135.438 271.758 135.656 271.758 135.891H270.312C270.312 135.589 270.391 135.289 270.547 134.992C270.703 134.695 270.927 134.427 271.219 134.188C271.516 133.943 271.87 133.75 272.281 133.609C272.698 133.464 273.161 133.391 273.672 133.391C274.286 133.391 274.828 133.495 275.297 133.703C275.771 133.911 276.141 134.227 276.406 134.648C276.677 135.065 276.812 135.589 276.812 136.219V140.156C276.812 140.438 276.836 140.737 276.883 141.055C276.935 141.372 277.01 141.646 277.109 141.875V142H275.602C275.529 141.833 275.471 141.612 275.43 141.336C275.388 141.055 275.367 140.794 275.367 140.555ZM275.617 136.875L275.633 137.891H274.172C273.76 137.891 273.393 137.924 273.07 137.992C272.747 138.055 272.477 138.151 272.258 138.281C272.039 138.411 271.872 138.576 271.758 138.773C271.643 138.966 271.586 139.193 271.586 139.453C271.586 139.719 271.646 139.961 271.766 140.18C271.885 140.398 272.065 140.573 272.305 140.703C272.549 140.828 272.849 140.891 273.203 140.891C273.646 140.891 274.036 140.797 274.375 140.609C274.714 140.422 274.982 140.193 275.18 139.922C275.383 139.651 275.492 139.388 275.508 139.133L276.125 139.828C276.089 140.047 275.99 140.289 275.828 140.555C275.667 140.82 275.451 141.076 275.18 141.32C274.914 141.56 274.596 141.76 274.227 141.922C273.862 142.078 273.451 142.156 272.992 142.156C272.419 142.156 271.917 142.044 271.484 141.82C271.057 141.596 270.724 141.297 270.484 140.922C270.25 140.542 270.133 140.117 270.133 139.648C270.133 139.195 270.221 138.797 270.398 138.453C270.576 138.104 270.831 137.815 271.164 137.586C271.497 137.352 271.898 137.174 272.367 137.055C272.836 136.935 273.359 136.875 273.938 136.875H275.617ZM284.414 140.359V130H285.867V142H284.539L284.414 140.359ZM278.727 137.867V137.703C278.727 137.057 278.805 136.471 278.961 135.945C279.122 135.414 279.349 134.958 279.641 134.578C279.938 134.198 280.289 133.906 280.695 133.703C281.107 133.495 281.565 133.391 282.07 133.391C282.602 133.391 283.065 133.484 283.461 133.672C283.862 133.854 284.201 134.122 284.477 134.477C284.758 134.826 284.979 135.247 285.141 135.742C285.302 136.237 285.414 136.797 285.477 137.422V138.141C285.419 138.76 285.307 139.318 285.141 139.812C284.979 140.307 284.758 140.729 284.477 141.078C284.201 141.427 283.862 141.695 283.461 141.883C283.06 142.065 282.591 142.156 282.055 142.156C281.56 142.156 281.107 142.049 280.695 141.836C280.289 141.622 279.938 141.323 279.641 140.938C279.349 140.552 279.122 140.099 278.961 139.578C278.805 139.052 278.727 138.482 278.727 137.867ZM280.18 137.703V137.867C280.18 138.289 280.221 138.685 280.305 139.055C280.393 139.424 280.529 139.75 280.711 140.031C280.893 140.312 281.125 140.534 281.406 140.695C281.688 140.852 282.023 140.93 282.414 140.93C282.893 140.93 283.286 140.828 283.594 140.625C283.906 140.422 284.156 140.154 284.344 139.82C284.531 139.487 284.677 139.125 284.781 138.734V136.852C284.719 136.565 284.628 136.289 284.508 136.023C284.393 135.753 284.242 135.513 284.055 135.305C283.872 135.091 283.646 134.922 283.375 134.797C283.109 134.672 282.794 134.609 282.43 134.609C282.034 134.609 281.693 134.693 281.406 134.859C281.125 135.021 280.893 135.245 280.711 135.531C280.529 135.812 280.393 136.141 280.305 136.516C280.221 136.885 280.18 137.281 280.18 137.703ZM293.102 140.555V136.203C293.102 135.87 293.034 135.581 292.898 135.336C292.768 135.086 292.57 134.893 292.305 134.758C292.039 134.622 291.711 134.555 291.32 134.555C290.956 134.555 290.635 134.617 290.359 134.742C290.089 134.867 289.875 135.031 289.719 135.234C289.568 135.438 289.492 135.656 289.492 135.891H288.047C288.047 135.589 288.125 135.289 288.281 134.992C288.438 134.695 288.661 134.427 288.953 134.188C289.25 133.943 289.604 133.75 290.016 133.609C290.432 133.464 290.896 133.391 291.406 133.391C292.021 133.391 292.562 133.495 293.031 133.703C293.505 133.911 293.875 134.227 294.141 134.648C294.411 135.065 294.547 135.589 294.547 136.219V140.156C294.547 140.438 294.57 140.737 294.617 141.055C294.669 141.372 294.745 141.646 294.844 141.875V142H293.336C293.263 141.833 293.206 141.612 293.164 141.336C293.122 141.055 293.102 140.794 293.102 140.555ZM293.352 136.875L293.367 137.891H291.906C291.495 137.891 291.128 137.924 290.805 137.992C290.482 138.055 290.211 138.151 289.992 138.281C289.773 138.411 289.607 138.576 289.492 138.773C289.378 138.966 289.32 139.193 289.32 139.453C289.32 139.719 289.38 139.961 289.5 140.18C289.62 140.398 289.799 140.573 290.039 140.703C290.284 140.828 290.583 140.891 290.938 140.891C291.38 140.891 291.771 140.797 292.109 140.609C292.448 140.422 292.716 140.193 292.914 139.922C293.117 139.651 293.227 139.388 293.242 139.133L293.859 139.828C293.823 140.047 293.724 140.289 293.562 140.555C293.401 140.82 293.185 141.076 292.914 141.32C292.648 141.56 292.331 141.76 291.961 141.922C291.596 142.078 291.185 142.156 290.727 142.156C290.154 142.156 289.651 142.044 289.219 141.82C288.792 141.596 288.458 141.297 288.219 140.922C287.984 140.542 287.867 140.117 287.867 139.648C287.867 139.195 287.956 138.797 288.133 138.453C288.31 138.104 288.565 137.815 288.898 137.586C289.232 137.352 289.633 137.174 290.102 137.055C290.57 136.935 291.094 136.875 291.672 136.875H293.352ZM301.742 139.758C301.742 139.549 301.695 139.357 301.602 139.18C301.513 138.997 301.328 138.833 301.047 138.688C300.771 138.536 300.354 138.406 299.797 138.297C299.328 138.198 298.904 138.081 298.523 137.945C298.148 137.81 297.828 137.646 297.562 137.453C297.302 137.26 297.102 137.034 296.961 136.773C296.82 136.513 296.75 136.208 296.75 135.859C296.75 135.526 296.823 135.211 296.969 134.914C297.12 134.617 297.331 134.354 297.602 134.125C297.878 133.896 298.208 133.716 298.594 133.586C298.979 133.456 299.409 133.391 299.883 133.391C300.56 133.391 301.138 133.51 301.617 133.75C302.096 133.99 302.464 134.31 302.719 134.711C302.974 135.107 303.102 135.547 303.102 136.031H301.656C301.656 135.797 301.586 135.57 301.445 135.352C301.31 135.128 301.109 134.943 300.844 134.797C300.583 134.651 300.263 134.578 299.883 134.578C299.482 134.578 299.156 134.641 298.906 134.766C298.661 134.885 298.482 135.039 298.367 135.227C298.258 135.414 298.203 135.612 298.203 135.82C298.203 135.977 298.229 136.117 298.281 136.242C298.339 136.362 298.438 136.474 298.578 136.578C298.719 136.677 298.917 136.771 299.172 136.859C299.427 136.948 299.753 137.036 300.148 137.125C300.841 137.281 301.411 137.469 301.859 137.688C302.307 137.906 302.641 138.174 302.859 138.492C303.078 138.81 303.188 139.195 303.188 139.648C303.188 140.018 303.109 140.357 302.953 140.664C302.802 140.971 302.581 141.237 302.289 141.461C302.003 141.68 301.659 141.852 301.258 141.977C300.862 142.096 300.417 142.156 299.922 142.156C299.177 142.156 298.547 142.023 298.031 141.758C297.516 141.492 297.125 141.148 296.859 140.727C296.594 140.305 296.461 139.859 296.461 139.391H297.914C297.935 139.786 298.049 140.102 298.258 140.336C298.466 140.565 298.721 140.729 299.023 140.828C299.326 140.922 299.625 140.969 299.922 140.969C300.318 140.969 300.648 140.917 300.914 140.812C301.185 140.708 301.391 140.565 301.531 140.383C301.672 140.201 301.742 139.992 301.742 139.758Z" fill="#C4C4CC"/>
<path fill-rule="evenodd" clip-rule="evenodd" d="M419 129C412.925 129 408 133.925 408 140C408 146.075 412.925 151 419 151C425.075 151 430 146.075 430 140C430 133.925 425.075 129 419 129ZM406 140C406 132.82 411.82 127 419 127C426.18 127 432 132.82 432 140C432 147.18 426.18 153 419 153C411.82 153 406 147.18 406 140Z" fill="#00B37E"/>
<path fill-rule="evenodd" clip-rule="evenodd" d="M419 134C419.265 134 419.52 134.105 419.707 134.293L423.945 138.53C424.335 138.921 424.335 139.554 423.945 139.945C423.554 140.335 422.921 140.335 422.53 139.945L419 136.414L415.47 139.945C415.079 140.335 414.446 140.335 414.055 139.945C413.665 139.554 413.665 138.921 414.055 138.53L418.293 134.293C418.48 134.105 418.735 134 419 134Z" fill="#00B37E"/>
<path fill-rule="evenodd" clip-rule="evenodd" d="M419 134C419.552 134 420 134.448 420 135L420 145C420 145.552 419.552 146 419 146C418.448 146 418 145.552 418 145L418 135C418 134.448 418.448 134 419 134Z" fill="#00B37E"/>
<path d="M243.031 178.25H251.516C253.255 178.25 254.75 178.51 256 179.031C257.26 179.552 258.229 180.323 258.906 181.344C259.583 182.365 259.922 183.62 259.922 185.109C259.922 186.328 259.714 187.375 259.297 188.25C258.891 189.115 258.312 189.839 257.562 190.422C256.823 190.995 255.953 191.453 254.953 191.797L253.469 192.578H246.094L246.062 188.922H251.547C252.37 188.922 253.052 188.776 253.594 188.484C254.135 188.193 254.542 187.786 254.812 187.266C255.094 186.745 255.234 186.141 255.234 185.453C255.234 184.724 255.099 184.094 254.828 183.562C254.557 183.031 254.146 182.625 253.594 182.344C253.042 182.062 252.349 181.922 251.516 181.922H247.719V201H243.031V178.25ZM255.75 201L250.562 190.859L255.516 190.828L260.766 200.781V201H255.75ZM272.453 174.641V179.25H270.016V174.641H272.453ZM272.156 200.156V204.359H269.719V200.156H272.156ZM273.875 195.031C273.875 194.438 273.766 193.932 273.547 193.516C273.339 193.099 272.995 192.729 272.516 192.406C272.047 192.083 271.411 191.771 270.609 191.469C269.255 190.948 268.062 190.396 267.031 189.812C266.01 189.219 265.214 188.484 264.641 187.609C264.068 186.724 263.781 185.604 263.781 184.25C263.781 182.958 264.089 181.839 264.703 180.891C265.318 179.943 266.167 179.214 267.25 178.703C268.344 178.182 269.615 177.922 271.062 177.922C272.167 177.922 273.167 178.089 274.062 178.422C274.958 178.745 275.729 179.224 276.375 179.859C277.021 180.484 277.516 181.25 277.859 182.156C278.203 183.062 278.375 184.099 278.375 185.266H273.891C273.891 184.641 273.823 184.089 273.688 183.609C273.552 183.13 273.354 182.729 273.094 182.406C272.844 182.083 272.542 181.844 272.188 181.688C271.833 181.521 271.443 181.438 271.016 181.438C270.38 181.438 269.859 181.562 269.453 181.812C269.047 182.062 268.75 182.401 268.562 182.828C268.385 183.245 268.297 183.724 268.297 184.266C268.297 184.797 268.391 185.26 268.578 185.656C268.776 186.052 269.115 186.417 269.594 186.75C270.073 187.073 270.729 187.406 271.562 187.75C272.917 188.271 274.104 188.833 275.125 189.438C276.146 190.042 276.943 190.781 277.516 191.656C278.089 192.531 278.375 193.646 278.375 195C278.375 196.344 278.062 197.49 277.438 198.438C276.812 199.375 275.938 200.094 274.812 200.594C273.688 201.083 272.385 201.328 270.906 201.328C269.948 201.328 268.995 201.203 268.047 200.953C267.099 200.693 266.24 200.276 265.469 199.703C264.698 199.13 264.083 198.37 263.625 197.422C263.167 196.464 262.938 195.286 262.938 193.891H267.438C267.438 194.651 267.536 195.286 267.734 195.797C267.932 196.297 268.193 196.698 268.516 197C268.849 197.292 269.224 197.5 269.641 197.625C270.057 197.75 270.479 197.812 270.906 197.812C271.573 197.812 272.12 197.693 272.547 197.453C272.984 197.214 273.312 196.885 273.531 196.469C273.76 196.042 273.875 195.562 273.875 195.031ZM300.375 178.203V201H295.875V183.391L290.469 185.109V181.562L299.891 178.203H300.375ZM323.234 178.25V180.672L314.438 201H309.688L318.484 181.766H307.156V178.25H323.234ZM326.562 198.828C326.562 198.161 326.792 197.604 327.25 197.156C327.719 196.708 328.339 196.484 329.109 196.484C329.88 196.484 330.495 196.708 330.953 197.156C331.422 197.604 331.656 198.161 331.656 198.828C331.656 199.495 331.422 200.052 330.953 200.5C330.495 200.948 329.88 201.172 329.109 201.172C328.339 201.172 327.719 200.948 327.25 200.5C326.792 200.052 326.562 199.495 326.562 198.828ZM351.375 192.5V196.031H334.984L334.766 193.297L344.25 178.25H347.828L343.953 184.734L339.234 192.5H351.375ZM348.797 178.25V201H344.297V178.25H348.797ZM369.125 187.625V191.562C369.125 193.271 368.943 194.745 368.578 195.984C368.214 197.214 367.688 198.224 367 199.016C366.323 199.797 365.516 200.375 364.578 200.75C363.641 201.125 362.599 201.312 361.453 201.312C360.536 201.312 359.682 201.198 358.891 200.969C358.099 200.729 357.385 200.359 356.75 199.859C356.125 199.359 355.583 198.729 355.125 197.969C354.677 197.198 354.333 196.281 354.094 195.219C353.854 194.156 353.734 192.938 353.734 191.562V187.625C353.734 185.917 353.917 184.453 354.281 183.234C354.656 182.005 355.182 181 355.859 180.219C356.547 179.438 357.359 178.865 358.297 178.5C359.234 178.125 360.276 177.938 361.422 177.938C362.339 177.938 363.188 178.057 363.969 178.297C364.76 178.526 365.474 178.885 366.109 179.375C366.745 179.865 367.286 180.495 367.734 181.266C368.182 182.026 368.526 182.938 368.766 184C369.005 185.052 369.125 186.26 369.125 187.625ZM364.609 192.156V187.016C364.609 186.193 364.562 185.474 364.469 184.859C364.385 184.245 364.255 183.724 364.078 183.297C363.901 182.859 363.682 182.505 363.422 182.234C363.161 181.964 362.865 181.766 362.531 181.641C362.198 181.516 361.828 181.453 361.422 181.453C360.911 181.453 360.458 181.552 360.062 181.75C359.677 181.948 359.349 182.266 359.078 182.703C358.807 183.13 358.599 183.703 358.453 184.422C358.318 185.13 358.25 185.995 358.25 187.016V192.156C358.25 192.979 358.292 193.703 358.375 194.328C358.469 194.953 358.604 195.49 358.781 195.938C358.969 196.375 359.188 196.734 359.438 197.016C359.698 197.286 359.995 197.484 360.328 197.609C360.672 197.734 361.047 197.797 361.453 197.797C361.953 197.797 362.396 197.698 362.781 197.5C363.177 197.292 363.51 196.969 363.781 196.531C364.062 196.083 364.271 195.5 364.406 194.781C364.542 194.062 364.609 193.188 364.609 192.156ZM387.5 187.625V191.562C387.5 193.271 387.318 194.745 386.953 195.984C386.589 197.214 386.062 198.224 385.375 199.016C384.698 199.797 383.891 200.375 382.953 200.75C382.016 201.125 380.974 201.312 379.828 201.312C378.911 201.312 378.057 201.198 377.266 200.969C376.474 200.729 375.76 200.359 375.125 199.859C374.5 199.359 373.958 198.729 373.5 197.969C373.052 197.198 372.708 196.281 372.469 195.219C372.229 194.156 372.109 192.938 372.109 191.562V187.625C372.109 185.917 372.292 184.453 372.656 183.234C373.031 182.005 373.557 181 374.234 180.219C374.922 179.438 375.734 178.865 376.672 178.5C377.609 178.125 378.651 177.938 379.797 177.938C380.714 177.938 381.562 178.057 382.344 178.297C383.135 178.526 383.849 178.885 384.484 179.375C385.12 179.865 385.661 180.495 386.109 181.266C386.557 182.026 386.901 182.938 387.141 184C387.38 185.052 387.5 186.26 387.5 187.625ZM382.984 192.156V187.016C382.984 186.193 382.938 185.474 382.844 184.859C382.76 184.245 382.63 183.724 382.453 183.297C382.276 182.859 382.057 182.505 381.797 182.234C381.536 181.964 381.24 181.766 380.906 181.641C380.573 181.516 380.203 181.453 379.797 181.453C379.286 181.453 378.833 181.552 378.438 181.75C378.052 181.948 377.724 182.266 377.453 182.703C377.182 183.13 376.974 183.703 376.828 184.422C376.693 185.13 376.625 185.995 376.625 187.016V192.156C376.625 192.979 376.667 193.703 376.75 194.328C376.844 194.953 376.979 195.49 377.156 195.938C377.344 196.375 377.562 196.734 377.812 197.016C378.073 197.286 378.37 197.484 378.703 197.609C379.047 197.734 379.422 197.797 379.828 197.797C380.328 197.797 380.771 197.698 381.156 197.5C381.552 197.292 381.885 196.969 382.156 196.531C382.438 196.083 382.646 195.5 382.781 194.781C382.917 194.062 382.984 193.188 382.984 192.156ZM395.016 197.203L395 200.219C395 201.375 394.708 202.542 394.125 203.719C393.552 204.896 392.823 205.859 391.938 206.609L389.594 205.406C389.854 204.927 390.109 204.448 390.359 203.969C390.609 203.49 390.818 202.964 390.984 202.391C391.151 201.818 391.234 201.167 391.234 200.438V197.203H395.016ZM413.75 187.625V191.562C413.75 193.271 413.568 194.745 413.203 195.984C412.839 197.214 412.312 198.224 411.625 199.016C410.948 199.797 410.141 200.375 409.203 200.75C408.266 201.125 407.224 201.312 406.078 201.312C405.161 201.312 404.307 201.198 403.516 200.969C402.724 200.729 402.01 200.359 401.375 199.859C400.75 199.359 400.208 198.729 399.75 197.969C399.302 197.198 398.958 196.281 398.719 195.219C398.479 194.156 398.359 192.938 398.359 191.562V187.625C398.359 185.917 398.542 184.453 398.906 183.234C399.281 182.005 399.807 181 400.484 180.219C401.172 179.438 401.984 178.865 402.922 178.5C403.859 178.125 404.901 177.938 406.047 177.938C406.964 177.938 407.812 178.057 408.594 178.297C409.385 178.526 410.099 178.885 410.734 179.375C411.37 179.865 411.911 180.495 412.359 181.266C412.807 182.026 413.151 182.938 413.391 184C413.63 185.052 413.75 186.26 413.75 187.625ZM409.234 192.156V187.016C409.234 186.193 409.188 185.474 409.094 184.859C409.01 184.245 408.88 183.724 408.703 183.297C408.526 182.859 408.307 182.505 408.047 182.234C407.786 181.964 407.49 181.766 407.156 181.641C406.823 181.516 406.453 181.453 406.047 181.453C405.536 181.453 405.083 181.552 404.688 181.75C404.302 181.948 403.974 182.266 403.703 182.703C403.432 183.13 403.224 183.703 403.078 184.422C402.943 185.13 402.875 185.995 402.875 187.016V192.156C402.875 192.979 402.917 193.703 403 194.328C403.094 194.953 403.229 195.49 403.406 195.938C403.594 196.375 403.812 196.734 404.062 197.016C404.323 197.286 404.62 197.484 404.953 197.609C405.297 197.734 405.672 197.797 406.078 197.797C406.578 197.797 407.021 197.698 407.406 197.5C407.802 197.292 408.135 196.969 408.406 196.531C408.688 196.083 408.896 195.5 409.031 194.781C409.167 194.062 409.234 193.188 409.234 192.156ZM432.125 187.625V191.562C432.125 193.271 431.943 194.745 431.578 195.984C431.214 197.214 430.688 198.224 430 199.016C429.323 199.797 428.516 200.375 427.578 200.75C426.641 201.125 425.599 201.312 424.453 201.312C423.536 201.312 422.682 201.198 421.891 200.969C421.099 200.729 420.385 200.359 419.75 199.859C419.125 199.359 418.583 198.729 418.125 197.969C417.677 197.198 417.333 196.281 417.094 195.219C416.854 194.156 416.734 192.938 416.734 191.562V187.625C416.734 185.917 416.917 184.453 417.281 183.234C417.656 182.005 418.182 181 418.859 180.219C419.547 179.438 420.359 178.865 421.297 178.5C422.234 178.125 423.276 177.938 424.422 177.938C425.339 177.938 426.188 178.057 426.969 178.297C427.76 178.526 428.474 178.885 429.109 179.375C429.745 179.865 430.286 180.495 430.734 181.266C431.182 182.026 431.526 182.938 431.766 184C432.005 185.052 432.125 186.26 432.125 187.625ZM427.609 192.156V187.016C427.609 186.193 427.562 185.474 427.469 184.859C427.385 184.245 427.255 183.724 427.078 183.297C426.901 182.859 426.682 182.505 426.422 182.234C426.161 181.964 425.865 181.766 425.531 181.641C425.198 181.516 424.828 181.453 424.422 181.453C423.911 181.453 423.458 181.552 423.062 181.75C422.677 181.948 422.349 182.266 422.078 182.703C421.807 183.13 421.599 183.703 421.453 184.422C421.318 185.13 421.25 185.995 421.25 187.016V192.156C421.25 192.979 421.292 193.703 421.375 194.328C421.469 194.953 421.604 195.49 421.781 195.938C421.969 196.375 422.188 196.734 422.438 197.016C422.698 197.286 422.995 197.484 423.328 197.609C423.672 197.734 424.047 197.797 424.453 197.797C424.953 197.797 425.396 197.698 425.781 197.5C426.177 197.292 426.51 196.969 426.781 196.531C427.062 196.083 427.271 195.5 427.406 194.781C427.542 194.062 427.609 193.188 427.609 192.156Z" fill="#E1E1E6"/>
</svg>
