<svg width="154" height="48" viewBox="0 0 154 48" fill="none" xmlns="http://www.w3.org/2000/svg">
<g clip-path="url(#clip0_42314_456)">
<path fill-rule="evenodd" clip-rule="evenodd" d="M36 20.1905H28H4.00001V33.8419C4.00001 36.8172 6.54199 39.2381 9.66599 39.2381H36V20.1905ZM4.00001 16.381H24V14.1581C24 11.1829 21.292 8.76192 18.166 8.76192H18H4.00001V16.381ZM40 16.381V43.0476H9.66599C4.32799 43.0476 0 38.9257 0 33.8419V4.95239H18.5C23.838 4.95239 28 9.07428 28 14.1581V16.381H40ZM28.334 29.7143C28.334 28.6629 29.228 27.8095 30.334 27.8095C31.438 27.8095 32.334 28.6629 32.334 29.7143C32.334 30.7657 31.438 31.6191 30.334 31.6191C29.228 31.6191 28.334 30.7657 28.334 29.7143Z" fill="#00B37E"/>
</g>
<path d="M62.2896 12.6719V34H57.895V12.6719H62.2896ZM70.7856 21.7832V25.2109H61.0884V21.7832H70.7856ZM71.811 12.6719V16.1143H61.0884V12.6719H71.811ZM82.1528 30.4258V23.3652C82.1528 22.8574 82.0698 22.4229 81.9038 22.0615C81.7378 21.6904 81.479 21.4023 81.1274 21.1973C80.7856 20.9922 80.3413 20.8896 79.7944 20.8896C79.3257 20.8896 78.9204 20.9727 78.5786 21.1387C78.2368 21.2949 77.9731 21.5244 77.7876 21.8271C77.6021 22.1201 77.5093 22.4668 77.5093 22.8672H73.2905C73.2905 22.1934 73.4468 21.5537 73.7593 20.9482C74.0718 20.3428 74.5259 19.8105 75.1216 19.3516C75.7173 18.8828 76.4253 18.5166 77.2456 18.2529C78.0757 17.9893 79.0034 17.8574 80.0288 17.8574C81.2593 17.8574 82.353 18.0625 83.3101 18.4727C84.2671 18.8828 85.019 19.498 85.5659 20.3184C86.1226 21.1387 86.4009 22.1641 86.4009 23.3945V30.1768C86.4009 31.0459 86.4546 31.7588 86.562 32.3154C86.6694 32.8623 86.8257 33.3408 87.0308 33.751V34H82.7681C82.563 33.5703 82.4067 33.0332 82.2993 32.3887C82.2017 31.7344 82.1528 31.0801 82.1528 30.4258ZM82.7095 24.3467L82.7388 26.7344H80.3804C79.8237 26.7344 79.3403 26.7979 78.9302 26.9248C78.52 27.0518 78.1831 27.2324 77.9194 27.4668C77.6558 27.6914 77.4604 27.9551 77.3335 28.2578C77.2163 28.5605 77.1577 28.8926 77.1577 29.2539C77.1577 29.6152 77.2407 29.9424 77.4067 30.2354C77.5728 30.5186 77.812 30.7432 78.1245 30.9092C78.437 31.0654 78.8032 31.1436 79.2231 31.1436C79.8579 31.1436 80.4097 31.0166 80.8784 30.7627C81.3472 30.5088 81.7085 30.1963 81.9624 29.8252C82.2261 29.4541 82.3628 29.1025 82.3726 28.7705L83.4858 30.5576C83.3296 30.958 83.1147 31.373 82.8413 31.8027C82.5776 32.2324 82.2407 32.6377 81.8306 33.0186C81.4204 33.3896 80.9272 33.6973 80.3511 33.9414C79.7749 34.1758 79.0913 34.293 78.3003 34.293C77.2944 34.293 76.3813 34.0928 75.561 33.6924C74.7505 33.2822 74.106 32.7207 73.6274 32.0078C73.1587 31.2852 72.9243 30.4648 72.9243 29.5469C72.9243 28.7168 73.0806 27.9795 73.3931 27.335C73.7056 26.6904 74.1646 26.1484 74.77 25.709C75.3853 25.2598 76.1519 24.9229 77.0698 24.6982C77.9878 24.4639 79.0522 24.3467 80.2632 24.3467H82.7095ZM96.2007 30.9971C96.7183 30.9971 97.1772 30.8994 97.5776 30.7041C97.978 30.499 98.2905 30.2158 98.5151 29.8545C98.7495 29.4834 98.8716 29.0488 98.8813 28.5508H102.851C102.841 29.6641 102.543 30.6553 101.958 31.5244C101.372 32.3838 100.585 33.0625 99.5991 33.5605C98.6128 34.0488 97.5093 34.293 96.2886 34.293C95.0581 34.293 93.9839 34.0879 93.0659 33.6777C92.1577 33.2676 91.4009 32.7012 90.7954 31.9785C90.1899 31.2461 89.7358 30.3965 89.4331 29.4297C89.1304 28.4531 88.979 27.4082 88.979 26.2949V25.8701C88.979 24.7471 89.1304 23.7021 89.4331 22.7354C89.7358 21.7588 90.1899 20.9092 90.7954 20.1865C91.4009 19.4541 92.1577 18.8828 93.0659 18.4727C93.9741 18.0625 95.0386 17.8574 96.2593 17.8574C97.5581 17.8574 98.6958 18.1064 99.6724 18.6045C100.659 19.1025 101.43 19.8154 101.987 20.7432C102.553 21.6611 102.841 22.75 102.851 24.0098H98.8813C98.8716 23.4824 98.7593 23.0039 98.5444 22.5742C98.3394 22.1445 98.0366 21.8027 97.6362 21.5488C97.2456 21.2852 96.7622 21.1533 96.186 21.1533C95.5708 21.1533 95.0679 21.2852 94.6772 21.5488C94.2866 21.8027 93.9839 22.1543 93.769 22.6035C93.5542 23.043 93.4028 23.5459 93.3149 24.1123C93.2368 24.6689 93.1978 25.2549 93.1978 25.8701V26.2949C93.1978 26.9102 93.2368 27.501 93.3149 28.0674C93.3931 28.6338 93.5396 29.1367 93.7544 29.5762C93.979 30.0156 94.2866 30.3623 94.6772 30.6162C95.0679 30.8701 95.5757 30.9971 96.2007 30.9971ZM109.75 18.1504V34H105.517V18.1504H109.75ZM105.253 14.0195C105.253 13.4043 105.468 12.8965 105.898 12.4961C106.328 12.0957 106.904 11.8955 107.626 11.8955C108.339 11.8955 108.911 12.0957 109.34 12.4961C109.78 12.8965 110 13.4043 110 14.0195C110 14.6348 109.78 15.1426 109.34 15.543C108.911 15.9434 108.339 16.1436 107.626 16.1436C106.904 16.1436 106.328 15.9434 105.898 15.543C105.468 15.1426 105.253 14.6348 105.253 14.0195ZM117.69 11.5V34H113.457V11.5H117.69ZM125.629 18.1504V34H121.396V18.1504H125.629ZM121.132 14.0195C121.132 13.4043 121.347 12.8965 121.777 12.4961C122.207 12.0957 122.783 11.8955 123.505 11.8955C124.218 11.8955 124.79 12.0957 125.219 12.4961C125.659 12.8965 125.878 13.4043 125.878 14.0195C125.878 14.6348 125.659 15.1426 125.219 15.543C124.79 15.9434 124.218 16.1436 123.505 16.1436C122.783 16.1436 122.207 15.9434 121.777 15.543C121.347 15.1426 121.132 14.6348 121.132 14.0195ZM136.879 18.1504V21.1387H127.651V18.1504H136.879ZM129.936 14.2393H134.155V29.2246C134.155 29.6836 134.213 30.0352 134.331 30.2793C134.458 30.5234 134.643 30.6943 134.887 30.792C135.131 30.8799 135.439 30.9238 135.81 30.9238C136.074 30.9238 136.308 30.9141 136.513 30.8945C136.728 30.8652 136.909 30.8359 137.055 30.8066L137.07 33.9121C136.708 34.0293 136.318 34.1221 135.898 34.1904C135.478 34.2588 135.014 34.293 134.506 34.293C133.579 34.293 132.768 34.1416 132.075 33.8389C131.391 33.5264 130.864 33.0283 130.493 32.3447C130.122 31.6611 129.936 30.7627 129.936 29.6494V14.2393ZM146.577 34.293C145.346 34.293 144.243 34.0977 143.266 33.707C142.29 33.3066 141.459 32.7549 140.776 32.0518C140.102 31.3486 139.584 30.5332 139.223 29.6055C138.862 28.668 138.681 27.6719 138.681 26.6172V26.0312C138.681 24.8301 138.852 23.7314 139.194 22.7354C139.536 21.7393 140.024 20.875 140.659 20.1426C141.303 19.4102 142.084 18.8486 143.002 18.458C143.92 18.0576 144.956 17.8574 146.108 17.8574C147.231 17.8574 148.227 18.043 149.096 18.4141C149.965 18.7852 150.693 19.3125 151.279 19.9961C151.875 20.6797 152.324 21.5 152.626 22.457C152.929 23.4043 153.081 24.459 153.081 25.6211V27.3789H140.483V24.5664H148.935V24.2441C148.935 23.6582 148.828 23.1357 148.613 22.6768C148.408 22.208 148.095 21.8369 147.675 21.5635C147.255 21.29 146.718 21.1533 146.064 21.1533C145.507 21.1533 145.029 21.2754 144.628 21.5195C144.228 21.7637 143.901 22.1055 143.647 22.5449C143.403 22.9844 143.217 23.502 143.09 24.0977C142.973 24.6836 142.915 25.3281 142.915 26.0312V26.6172C142.915 27.252 143.002 27.8379 143.178 28.375C143.364 28.9121 143.623 29.376 143.955 29.7666C144.296 30.1572 144.707 30.46 145.185 30.6748C145.673 30.8896 146.225 30.9971 146.84 30.9971C147.602 30.9971 148.31 30.8506 148.964 30.5576C149.628 30.2549 150.2 29.8008 150.678 29.1953L152.729 31.4219C152.397 31.9004 151.943 32.3594 151.367 32.7988C150.8 33.2383 150.117 33.5996 149.316 33.8828C148.515 34.1562 147.602 34.293 146.577 34.293Z" fill="#E1E1E6"/>
<defs>
<clipPath id="clip0_42314_456">
<rect width="40" height="40" fill="white" transform="translate(0 4)"/>
</clipPath>
</defs>
</svg>
